HIERARCHY
ROOT joint_Root
{
	OFFSET 0.0 0.0 0.0
	CHANNELS 6 Xposition Yposition Zposition Zrotation Xrotation Yrotation 
	JOINT Hips
	{
		OFFSET 4.5925 91.4895 -427.239
		CHANNELS 6 Xposition Yposition Zposition Zrotation Xrotation Yrotation 
		JOINT Spine
		{
			OFFSET 15.7357 0.0 0.0
			CHANNELS 6 Xposition Yposition Zposition Zrotation Xrotation Yrotation 
			JOINT Chest
			{
				OFFSET 8.98455 -0.406207 0.0
				CHANNELS 6 Xposition Yposition Zposition Zrotation Xrotation Yrotation 
				JOINT Neck
				{
					OFFSET 16.3773 0.0 0.0
					CHANNELS 6 Xposition Yposition Zposition Zrotation Xrotation Yrotation 
					JOINT Head
					{
						OFFSET 6.45672 0.0 0.0
						CHANNELS 6 Xposition Yposition Zposition Zrotation Xrotation Yrotation 
						End Site
						{
							OFFSET 0.0 0.0 0.0
						}
					}
				}
				JOINT Shoulder_L
				{
					OFFSET 12.9942 -0.242716 4.98039
					CHANNELS 6 Xposition Yposition Zposition Zrotation Xrotation Yrotation 
					JOINT UpperArm_L
					{
						OFFSET 5.34809 0.0 0.0
						CHANNELS 6 Xposition Yposition Zposition Zrotation Xrotation Yrotation 
						JOINT LowerArm_L
						{
							OFFSET 24.3286 1.87007e-05 0.0
							CHANNELS 6 Xposition Yposition Zposition Zrotation Xrotation Yrotation 
							JOINT Hand_L
							{
								OFFSET 22.2916 0.0 0.0
								CHANNELS 6 Xposition Yposition Zposition Zrotation Xrotation Yrotation 
								End Site
								{
									OFFSET 0.0 0.0 0.0
								}
							}
						}
					}
				}
				JOINT Shoulder_R
				{
					OFFSET 12.9945 -0.242716 -4.98039
					CHANNELS 6 Xposition Yposition Zposition Zrotation Xrotation Yrotation 
					JOINT UpperArm_R
					{
						OFFSET -5.34813 0.0 0.0
						CHANNELS 6 Xposition Yposition Zposition Zrotation Xrotation Yrotation 
						JOINT LowerArm_R
						{
							OFFSET -24.3289 0.000322201 0.0
							CHANNELS 6 Xposition Yposition Zposition Zrotation Xrotation Yrotation 
							JOINT Hand_R
							{
								OFFSET -22.2915 -0.000108084 0.0
								CHANNELS 6 Xposition Yposition Zposition Zrotation Xrotation Yrotation 
								End Site
								{
									OFFSET 0.0 0.0 0.0
								}
							}
						}
					}
				}
			}
		}
		JOINT UpperLeg_L
		{
			OFFSET -2.19248 -6.46944 0.0
			CHANNELS 6 Xposition Yposition Zposition Zrotation Xrotation Yrotation 
			JOINT LowerLeg_L
			{
				OFFSET 39.0811 0.0 -1.23785e-05
				CHANNELS 6 Xposition Yposition Zposition Zrotation Xrotation Yrotation 
				JOINT Foot_L
				{
					OFFSET 40.9854 0.0 -1.26872e-05
					CHANNELS 6 Xposition Yposition Zposition Zrotation Xrotation Yrotation 
					JOINT Toes_L
					{
						OFFSET 11.7543 0.0 0.0
						CHANNELS 6 Xposition Yposition Zposition Zrotation Xrotation Yrotation 
						End Site
						{
							OFFSET 0.0 0.0 0.0
						}
					}
				}
			}
		}
		JOINT UpperLeg_R
		{
			OFFSET -2.19251 6.46944 0.0
			CHANNELS 6 Xposition Yposition Zposition Zrotation Xrotation Yrotation 
			JOINT LowerLeg_R
			{
				OFFSET -39.0811 -0.00228153 -0.0401928
				CHANNELS 6 Xposition Yposition Zposition Zrotation Xrotation Yrotation 
				JOINT Foot_R
				{
					OFFSET -40.9854 0.0 0.0
					CHANNELS 6 Xposition Yposition Zposition Zrotation Xrotation Yrotation 
					JOINT Toes_R
					{
						OFFSET -11.7543 0.0 0.0
						CHANNELS 6 Xposition Yposition Zposition Zrotation Xrotation Yrotation 
						End Site
						{
							OFFSET 0.0 0.0 0.0
						}
					}
				}
			}
		}
	}
}
MOTION
Frames:	7
Frame Time:	0.0333333
0.000000 0.000000 0.000000 0.000000 0.000000 -0.000000 102.637000 89.570500 166.526000 -85.325500 40.023100 178.506000 15.735700 0.000005 -0.000001 84.105500 81.818100 -84.534600 8.984550 -0.406207 -0.000000 8.507790 -1.675290 -0.732933 16.377300 -0.000001 -0.000001 2.551180 8.425080 -1.945740 6.456720 -0.000001 -0.000000 0.277901 13.950100 -2.460210 12.994200 -0.242716 4.980390 -90.767400 2.288600 -71.456600 5.348090 -0.000007 -0.000001 -61.717700 31.573500 -22.301700 24.328600 0.000019 0.000005 12.263900 12.805600 -44.442800 22.291600 -0.000001 0.000005 15.250400 5.245400 1.554030 12.994500 -0.242716 -4.980390 88.131000 9.258900 -78.534900 -5.348130 -0.000001 -0.000004 -63.082800 29.240200 -8.728240 -24.328900 0.000322 -0.000009 -1.059260 -1.849830 -29.775400 -22.291500 -0.000108 -0.000004 13.566100 5.361310 -1.720020 -2.192480 -6.469440 -0.000000 -179.582000 -5.056220 -7.107030 39.081100 -0.000007 -0.000012 -0.307123 0.442097 34.788200 40.985400 -0.000006 -0.000013 4.767020 -0.191445 -76.771700 11.754300 -0.000000 0.000003 -0.000352 -0.002973 -16.687700 -2.192510 6.469440 -0.000001 -179.439000 12.971200 156.132000 -39.081100 -0.002282 -0.040193 -0.073099 0.128730 30.688600 -40.985400 0.000008 0.000006 -1.559680 3.202320 -58.233500 -11.754300 -0.000006 -0.000006 -0.014225 -0.132881 -21.993500
0.000000 0.000000 0.000000 0.000000 0.000000 -0.000000 104.097000 89.444200 165.499000 -85.058500 38.336900 177.769000 15.735700 0.000005 -0.000001 84.443900 81.880400 -84.539300 8.984550 -0.406207 -0.000000 8.397990 -1.565490 -0.075571 16.377300 -0.000001 -0.000001 2.612360 8.158120 -1.911080 6.456720 -0.000001 -0.000000 0.064484 13.575600 -2.543300 12.994200 -0.242716 4.980390 -90.868500 2.604950 -71.555100 5.348090 -0.000007 -0.000001 -61.287100 31.575500 -22.327400 24.328600 0.000019 0.000005 12.561500 12.172600 -46.580400 22.291600 -0.000001 0.000005 15.767900 5.249000 1.459310 12.994500 -0.242716 -4.980390 88.126800 9.357760 -78.627100 -5.348130 -0.000001 -0.000004 -62.493300 29.680100 -9.884220 -24.328900 0.000322 -0.000009 -1.478800 -2.484710 -30.753500 -22.291500 -0.000108 -0.000004 13.770300 5.359060 -1.651050 -2.192480 -6.469440 -0.000000 -178.721000 -4.360460 -6.372410 39.081100 -0.000007 -0.000012 -0.316869 0.461775 34.458400 40.985400 -0.000006 -0.000013 4.632770 0.802049 -77.808700 11.754300 -0.000000 0.000003 -0.000336 -0.002858 -16.683600 -2.192510 6.469440 -0.000001 -177.473000 14.960500 153.761000 -39.081100 -0.002282 -0.040193 0.028085 -0.047986 27.309000 -40.985400 0.000008 0.000006 -0.394456 11.152800 -56.386100 -11.754300 -0.000006 -0.000006 -0.014697 -0.135900 -22.117300
0.000000 0.000000 0.000000 0.000000 0.000000 -0.000000 105.844000 89.199700 164.182000 -85.139300 36.788000 177.556000 15.735700 0.000005 -0.000001 85.313500 81.902500 -85.113700 8.984550 -0.406207 -0.000000 8.378740 -1.315980 0.495638 16.377300 -0.000001 -0.000001 2.941520 7.855440 -1.822820 6.456720 -0.000001 -0.000000 0.018352 13.131800 -2.748760 12.994200 -0.242716 4.980390 -90.906200 2.721710 -71.576900 5.348090 -0.000007 -0.000001 -61.521500 31.673100 -22.080100 24.328600 0.000019 0.000005 12.370200 11.752400 -47.116900 22.291600 -0.000001 0.000005 16.278000 5.258320 1.211720 12.994500 -0.242716 -4.980390 88.147900 9.378710 -78.776500 -5.348130 -0.000001 -0.000004 -61.868900 30.101600 -11.315400 -24.328900 0.000322 -0.000009 -1.883440 -3.083280 -31.425100 -22.291500 -0.000108 -0.000004 14.014700 5.359480 -1.663870 -2.192480 -6.469440 -0.000000 -178.127000 -3.556510 -4.951970 39.081100 -0.000007 -0.000012 -0.298300 0.442582 33.980500 40.985400 -0.000006 -0.000013 4.681680 1.386990 -79.097700 11.754300 -0.000000 0.000003 -0.184676 -0.246218 -16.493200 -2.192510 6.469440 -0.000001 -177.059000 14.300700 152.622000 -39.081100 -0.002282 -0.040193 0.033856 -0.058935 27.399700 -40.985400 0.000008 0.000006 -0.242480 13.971500 -55.046400 -11.754300 -0.000006 -0.000006 -0.015295 -0.139666 -22.271900
0.000000 0.000000 0.000000 0.000000 0.000000 -0.000000 107.934000 88.887700 162.509000 -85.546300 34.943300 177.977000 15.735700 0.000005 -0.000001 85.532300 81.867200 -85.082400 8.984550 -0.406207 -0.000000 8.456750 -1.258350 0.992189 16.377300 -0.000001 -0.000001 3.405120 7.500240 -1.725640 6.456720 -0.000001 -0.000000 0.352059 12.588600 -2.853610 12.994200 -0.242716 4.980390 -90.931100 2.778630 -71.466800 5.348090 -0.000007 -0.000001 -62.070200 31.927800 -21.273200 24.328600 0.000019 0.000005 12.106100 11.687100 -46.637600 22.291600 -0.000001 0.000005 16.325000 5.254800 1.305750 12.994500 -0.242716 -4.980390 88.111900 9.569100 -78.783400 -5.348130 -0.000001 -0.000004 -60.910400 30.914500 -13.116300 -24.328900 0.000322 -0.000009 -2.350220 -3.804120 -31.729400 -22.291500 -0.000108 -0.000004 14.230500 5.358750 -1.641740 -2.192480 -6.469440 -0.000000 -178.091000 -2.566960 -3.271520 39.081100 -0.000007 -0.000012 0.010513 -0.015422 34.278800 40.985400 -0.000006 -0.000013 7.663660 0.987957 -80.022900 11.754300 -0.000000 0.000003 -1.733080 -2.228870 -16.388200 -2.192510 6.469440 -0.000001 -177.779000 13.295100 152.630000 -39.081100 -0.002282 -0.040193 -0.002529 0.009990 30.267900 -40.985400 0.000008 0.000006 -0.009138 11.435100 -52.884000 -11.754300 -0.000006 -0.000006 -0.013421 -0.127631 -21.778100
0.000000 0.000000 0.000000 0.000000 0.000000 -0.000000 110.095000 88.708900 160.645000 -85.713000 32.850500 178.475000 15.735700 0.000005 -0.000001 85.710300 81.800000 -84.874700 8.984550 -0.406207 -0.000000 8.598840 -1.214700 1.760870 16.377300 -0.000001 -0.000001 3.695670 7.090700 -1.626720 6.456720 -0.000001 -0.000000 0.961399 11.939600 -3.050780 12.994200 -0.242716 4.980390 -91.054900 3.124790 -71.335800 5.348090 -0.000007 -0.000001 -62.599600 32.354500 -20.068500 24.328600 0.000019 0.000005 11.637600 11.925400 -44.905300 22.291600 -0.000001 0.000005 16.237600 5.257150 1.242930 12.994500 -0.242716 -4.980390 88.023600 9.946980 -78.702700 -5.348130 -0.000001 -0.000004 -59.771600 31.473100 -14.997400 -24.328900 0.000322 -0.000009 -2.452180 -3.957790 -31.806400 -22.291500 -0.000108 -0.000004 14.541700 5.357980 -1.618010 -2.192480 -6.469440 -0.000000 -177.205000 -1.825560 -2.996170 39.081100 -0.000007 -0.000012 0.010993 -0.014661 36.859500 40.985400 -0.000006 -0.000013 7.353560 2.742530 -77.330800 11.754300 -0.000000 0.000003 -1.905450 -2.307870 -21.984500 -2.192510 6.469440 -0.000001 -178.363000 13.568500 153.185000 -39.081100 -0.002282 -0.040193 -0.047363 0.074619 34.171300 -40.985400 0.000008 0.000006 0.134009 9.316030 -56.740900 -11.754300 -0.000006 -0.000006 -0.008576 -0.092672 -20.347300
0.000000 0.000000 0.000000 0.000000 0.000000 -0.000000 112.157000 88.718600 158.615000 -86.396900 30.756200 179.700000 15.735700 0.000005 -0.000001 86.063100 81.649700 -84.968000 8.984550 -0.406207 -0.000000 8.908170 -1.129830 2.276270 16.377300 -0.000001 -0.000001 4.158040 6.574960 -1.401830 6.456720 -0.000001 -0.000000 1.568920 11.135900 -3.295540 12.994200 -0.242716 4.980390 -91.055400 3.126190 -71.334600 5.348090 -0.000007 -0.000001 -64.039400 32.850500 -18.441800 24.328600 0.000019 0.000005 10.808600 12.491000 -41.434100 22.291600 -0.000001 0.000005 16.374000 5.264720 1.040680 12.994500 -0.242716 -4.980390 88.014300 9.989750 -78.697700 -5.348130 -0.000001 -0.000004 -59.277700 31.582900 -16.557800 -24.328900 0.000322 -0.000009 -2.530620 -4.133210 -31.505600 -22.291500 -0.000108 -0.000004 14.926200 5.364600 -1.820370 -2.192480 -6.469440 -0.000000 -176.720000 -1.492790 -3.608780 39.081100 -0.000007 -0.000012 0.019548 -0.021927 41.714100 40.985400 -0.000006 -0.000013 6.872600 4.925730 -73.835500 11.754300 -0.000000 0.000003 -0.026868 -0.202746 -24.875900 -2.192510 6.469440 -0.000001 -179.518000 13.712000 155.108000 -39.081100 -0.002282 -0.040193 -0.125078 0.171899 36.750300 -40.985400 0.000008 0.000006 -0.008416 7.580590 -60.344900 -11.754300 -0.000006 -0.000006 -0.006131 -0.072022 -19.504400
0.000000 0.000000 0.000000 0.000000 0.000000 -0.000000 114.040000 88.884500 156.663000 -87.429600 28.407200 -178.788000 15.735700 0.000005 -0.000001 86.931200 81.505300 -85.696900 8.984550 -0.406207 -0.000000 9.210600 -0.889022 2.538060 16.377300 -0.000001 -0.000001 4.716120 5.675970 -1.068040 6.456720 -0.000001 -0.000000 2.061450 9.983760 -3.292150 12.994200 -0.242716 4.980390 -90.979300 2.916560 -71.431400 5.348090 -0.000007 -0.000001 -65.470300 33.891600 -17.201800 24.328600 0.000019 0.000005 9.559680 13.118900 -36.575400 22.291600 -0.000001 0.000005 16.134100 5.258930 1.196460 12.994500 -0.242716 -4.980390 88.077300 9.632960 -78.656500 -5.348130 -0.000001 -0.000004 -59.598000 30.982400 -17.333500 -24.328900 0.000322 -0.000009 -2.623150 -4.282610 -31.518900 -22.291500 -0.000108 -0.000004 14.913300 5.364980 -1.831900 -2.192480 -6.469440 -0.000000 -176.313000 -1.639910 -6.349710 39.081100 -0.000007 -0.000012 0.042523 -0.037003 48.967800 40.985400 -0.000006 -0.000013 5.508950 7.866210 -66.838100 11.754300 -0.000000 0.000003 -0.069454 -0.361356 -31.537500 -2.192510 6.469440 -0.000001 179.114000 15.062200 157.777000 -39.081100 -0.002282 -0.040193 -0.185908 0.241756 38.045900 -40.985400 0.000008 0.000006 -0.021748 6.719690 -63.249200 -11.754300 -0.000006 -0.000006 -0.004392 -0.055461 -18.829300
